<?xml version="1.0" encoding="UTF-8" standalone="no"?>
<!-- Generator: Adobe Illustrator 17.0.1, SVG Export Plug-In . SVG Version: 6.00 Build 0)  -->

<svg
   xmlns:osb="http://www.openswatchbook.org/uri/2009/osb"
   xmlns:dc="http://purl.org/dc/elements/1.1/"
   xmlns:cc="http://creativecommons.org/ns#"
   xmlns:rdf="http://www.w3.org/1999/02/22-rdf-syntax-ns#"
   xmlns:svg="http://www.w3.org/2000/svg"
   xmlns="http://www.w3.org/2000/svg"
   xmlns:xlink="http://www.w3.org/1999/xlink"
   xmlns:sodipodi="http://sodipodi.sourceforge.net/DTD/sodipodi-0.dtd"
   xmlns:inkscape="http://www.inkscape.org/namespaces/inkscape"
   version="1.1"
   x="0px"
   y="0px"
   width="86px"
   height="86px"
   viewBox="0 0 86 86"
   enable-background="new 0 0 86 86"
   xml:space="preserve"
   id="svg2"
   inkscape:version="0.48.5 r10040"
   sodipodi:docname="daedalus-icon.svg"><metadata
     id="metadata23"><rdf:RDF><cc:Work
         rdf:about=""><dc:format>image/svg+xml</dc:format><dc:type
           rdf:resource="http://purl.org/dc/dcmitype/StillImage" /><dc:title /></cc:Work></rdf:RDF></metadata><defs
     id="defs21"><linearGradient
       id="linearGradient5244"
       osb:paint="solid"><stop
         style="stop-color:#8e8d8d;stop-opacity:1;"
         offset="0"
         id="stop5246" /></linearGradient><linearGradient
       y2="0.7171"
       x2="85.2829"
       y1="73.1935"
       x1="12.8065"
       gradientUnits="userSpaceOnUse"
       id="SVGID_1_"><stop
         id="stop7"
         style="stop-color:#7F34B8"
         offset="0" /><stop
         id="stop9"
         style="stop-color:#F33B82"
         offset="0.9951" /></linearGradient><linearGradient
       inkscape:collect="always"
       xlink:href="#SVGID_1_"
       id="linearGradient3007"
       gradientUnits="userSpaceOnUse"
       x1="12.8065"
       y1="73.1935"
       x2="85.2829"
       y2="0.7171"
       gradientTransform="matrix(-1,0,0,-1,86,86)" /></defs><sodipodi:namedview
     pagecolor="#ffffff"
     bordercolor="#666666"
     borderopacity="1"
     objecttolerance="10"
     gridtolerance="10"
     guidetolerance="10"
     inkscape:pageopacity="0"
     inkscape:pageshadow="2"
     inkscape:window-width="1920"
     inkscape:window-height="1014"
     id="namedview19"
     showgrid="false"
     inkscape:zoom="7.7617303"
     inkscape:cx="22.380229"
     inkscape:cy="38.0362"
     inkscape:window-x="1920"
     inkscape:window-y="27"
     inkscape:window-maximized="1"
     inkscape:current-layer="svg2" /><g
     id="Layer_2"
     display="none" /><path
     inkscape:connector-curvature="0"
     style="fill:url(#linearGradient3007)"
     id="path11"
     d="m 0.301,84.277 c 0,0.786 0.637,1.423 1.423,1.423 0,0 40.641,0 41.276,0 C 66.583,85.7 85.7,66.583 85.7,43 85.7,19.418 66.583,0.3 43,0.3 19.417,0.3 0.3,19.418 0.3,43 c 0,0.636 0.001,41.277 0.001,41.277 z" /><g
     id="g13"
     transform="matrix(-1,0,0,-1,86,86)"><circle
       style="fill:#ffa6a3"
       sodipodi:ry="32.025002"
       sodipodi:rx="32.025002"
       sodipodi:cy="43"
       sodipodi:cx="43"
       id="circle15"
       r="32.025002"
       cy="43"
       cx="43"
       d="M 75.025002,43 C 75.025002,60.68692 60.68692,75.025002 43,75.025002 25.31308,75.025002 10.974998,60.68692 10.974998,43 10.974998,25.31308 25.31308,10.974998 43,10.974998 60.68692,10.974998 75.025002,25.31308 75.025002,43 z" /></g><path
     sodipodi:nodetypes="cssssssscssssssssssscssssssssssscccsscccsssssssssssssscssscssssssscssscsscccsssssscccccsssscscscsccscsssssssssscsscsssscsccccssssscsssssssssssscscsssssssscsssssssss"
     inkscape:connector-curvature="0"
     id="path3789"
     d="m 48.202149,56.823348 c -0.478069,-0.215802 -0.81284,-0.40504 -1.241366,-0.701721 -0.552425,-0.382455 -0.597173,-0.405023 -0.764575,-0.38557 -0.302209,0.03518 -1.305408,0.672 -1.641343,1.041986 -0.06643,0.07313 -0.110923,0.08203 -0.28618,0.05718 -0.484606,-0.06876 -0.630639,-0.135419 -0.900319,-0.411085 -0.141629,-0.144781 -0.176926,-0.308805 -0.277283,-0.365772 -0.02019,-0.01142 -0.155956,0.180942 -0.268393,0.276774 -0.112437,0.09582 -0.226112,0.174436 -0.252617,0.174696 -0.02654,2.52e-4 -0.288134,0.03862 -0.581397,0.08534 -0.293263,0.04668 -0.807818,0.02527 -1.14346,0.04987 -0.335634,0.0246 -0.872877,0.121901 -1.045334,0.146636 -0.58011,0.0832 -0.82567,0.03409 -2.186514,-0.428952 -1.242351,-0.422764 -2.274799,-0.73423 -3.622464,-1.092807 -0.418098,-0.111247 -1.244801,-0.366569 -1.837115,-0.567376 -0.592313,-0.200816 -1.409508,-0.467339 -1.815998,-0.592288 -0.433914,-0.133371 -0.785016,-0.266573 -0.850343,-0.322616 -0.06122,-0.05248 -0.234643,-0.149516 -0.385422,-0.21561 -0.20287,-0.08893 -0.307785,-0.167198 -0.403543,-0.301055 -0.07115,-0.09948 -0.168696,-0.232746 -0.216725,-0.296136 l -0.08732,-0.11526 0.152358,-0.188087 c 0.443805,-0.547865 0.505372,-0.60081 0.868326,-0.74669 0.425327,-0.170951 1.366209,-0.679967 1.671447,-0.904241 0.145178,-0.106672 0.216318,-0.145956 0.367927,-0.170011 0.05454,-0.0086 0.119577,-0.01537 0.202211,-0.0225 0.192101,-0.01662 0.539311,-0.07615 0.771592,-0.132195 1.671463,-0.403613 1.511298,-0.268865 1.886707,-0.338628 0.261002,-0.04853 0.480284,0.01881 1.449658,-0.108703 1.289916,-0.16965 1.488326,-0.162966 2.118557,0.07137 0.591044,0.219774 2.237011,0.386141 2.378322,0.240394 0.02532,-0.02611 0.02084,-0.108501 -0.01205,-0.223342 l -0.0521,-0.182 -2.005217,-1.042128 -2.005217,-1.042129 -0.83127,-0.02821 c -0.727471,-0.02468 -1.762181,-0.09196 -2.829755,-0.183907 l -0.324669,-0.02796 -0.19915,-0.339786 -0.199158,-0.339778 -1.989017,-0.837015 c -1.761245,-0.741157 -2.331188,-1.008015 -4.977008,-2.33031 -3.154855,-1.576685 -3.31598,-1.670712 -3.567669,-2.081923 -0.0569,-0.09294 -0.156885,-0.1898 -0.222204,-0.215232 -0.09914,-0.03862 -0.130623,-0.09138 -0.190448,-0.319325 -0.04713,-0.179573 -0.133879,-0.355713 -0.253366,-0.514414 -0.09993,-0.132724 -0.234545,-0.334598 -0.299148,-0.44859 -0.06464,-0.113993 -0.328919,-0.511082 -0.587372,-0.882412 -0.258446,-0.37133 -0.75891,-1.059894 -0.828584,-1.16806 -0.15463,-0.240067 -0.07571,-1.288316 -0.05552,-1.350715 0.01864,-0.05777 1.170177,-0.356679 1.638372,-0.51685 0.357573,-0.12233 1.27742,-0.393613 2.080809,-0.524187 0.376036,-0.06112 0.858941,-0.222427 1.408842,-0.421144 0.104524,-0.03778 0.242311,-0.07909 0.30619,-0.09191 l 0.116132,-0.02326 0,-0.456533 c 0,-0.379583 -0.01245,-0.468102 -0.07392,-0.52522 -0.152049,-0.141321 -1.228316,-0.876685 -3.030191,-2.070387 -1.854983,-1.228898 -2.148408,-1.431023 -2.119949,-1.460375 0.02011,-0.02074 0.417626,0.204728 2.979028,1.689334 1.192555,0.691218 2.204065,1.256756 2.247796,1.256756 0.122336,0 0.202455,-0.212587 0.248905,-0.660438 0.0232,-0.223703 0.07457,-0.626955 0.114082,-0.896106 0.03956,-0.269159 0.06366,-0.49638 0.05365,-0.504935 -0.01001,-0.0086 -0.868685,-0.648079 -1.908133,-1.421166 -1.039448,-0.773079 -1.889906,-1.423005 -1.889906,-1.444281 0,-0.02124 0.01425,-0.03862 0.03167,-0.03854 0.0648,2.52e-4 0.539823,0.318099 0.871468,0.583153 0.505519,0.404015 2.753885,2.030203 2.806961,2.030203 0.0709,0 0.150503,0.158189 0.247285,-0.0867 l 0.07587,-0.192058 1.203684,-0.346361 c 0.619527,-0.178272 0.796966,-0.129449 1.648384,-0.180715 l 0.366577,0.03669 1.431382,0.667466 1.337636,0.715801 0.890753,0.52543 c 0.157959,0.09319 0.409526,0.30878 0.833387,0.536328 0.610768,0.327889 0.986845,0.466675 1.096473,0.607384 0.102506,0.131557 1.074795,-0.337973 1.429771,-0.153219 0.358541,0.18661 1.383483,1.521784 4.252565,3.812927 0.568893,0.454299 0.693484,0.09944 1.530567,0.766513 l 4.726043,3.766145 0.0188,0.470797 0.01881,0.470806 0.418277,0.433024 0.418269,0.433023 0.476644,0 c 0.30597,0 0.616263,-0.02989 0.86656,-0.08346 0.214454,-0.04593 0.589464,-0.09501 0.833354,-0.109097 0.422136,-0.02435 0.550821,-0.0067 2.678064,0.366107 l 2.234625,0.391716 0.264323,0.177626 c 0.30291,0.203544 0.689324,0.367627 0.740781,0.314556 0.01921,-0.01981 0.04021,-0.388257 0.04656,-0.818711 l 0.01156,-0.782634 c 0,0 -0.0057,-0.104916 0.02963,-0.10427 0.04103,7.56e-4 0.03036,0.123128 0.03036,0.123128 l 0.10034,0.588811 c 0,0 0.01034,0.03417 0.0241,0.03451 0.02393,5.71e-4 0.04461,-0.05793 0.04461,-0.05793 l -0.02979,-0.668322 c -0.0057,-0.120785 0.216538,0.306202 0.287304,0.256389 0.08116,-0.05718 0.02515,-0.597091 -0.0049,-0.923955 -0.05845,-0.634738 -0.03517,-0.820827 0.105941,-0.848651 0.05641,-0.01108 0.142639,0.01368 0.198491,0.05709 0.09157,0.0712 0.125055,0.08253 0.06211,0.156359 -0.03728,0.04374 -0.08018,0.121507 -0.09531,0.172781 -0.0049,0.01562 -0.0744,0.08658 -0.07009,0.196081 0.02076,0.523927 0.200607,1.929577 0.268564,2.367731 0.02231,0.14374 0.04143,0.388752 0.04257,0.544473 l 0.0016,0.283129 1.170234,0.718001 c 1.132812,0.695047 1.183739,0.732199 1.592565,1.161822 l 0.422323,0.443813 0.401206,-0.05827 c 0.938742,-0.136292 1.583,-0.174612 2.935167,-0.174612 1.39764,0 1.712996,0.157551 2.302525,0.308209 0.406082,0.103783 0.824904,0.02385 1.0953,0.173109 0.175982,0.09714 0.312393,0.293113 0.449309,0.472921 0.296828,0.389793 0.297488,0.671093 0.440826,1.354326 0.07538,0.359349 0.182991,0.810181 0.239128,1.001828 0.140758,0.480612 0.348822,2.061596 0.349905,2.65877 6.18e-4,0.292996 -0.02442,0.582305 -0.0639,0.740486 -0.06447,0.258647 -0.324913,0.71167 -0.415517,0.722837 -0.02621,0.0034 -0.285203,0.01008 -0.575552,0.01528 -1.630092,0.02913 -3.811153,0.158618 -5.110137,0.303398 -0.754913,0.08414 -1.49991,0.153345 -1.655549,0.153773 -0.512072,0.0017 -0.673262,0.06154 -0.974999,0.363388 -0.147881,0.147945 -0.343433,0.31987 -0.434558,0.38206 -0.349937,0.238799 -1.223482,0.699261 -1.332646,0.70246 -0.06521,0.0017 -0.213274,-0.06431 -0.344312,-0.154025 -0.331735,-0.227104 -0.599461,-0.315027 -1.360544,-0.446827 -0.371639,-0.0644 -0.713729,-0.133144 -0.760179,-0.152849 -0.04648,-0.01973 -0.284015,-0.202352 -0.527905,-0.405871 -0.250582,-0.209103 -0.436756,-0.409314 -0.581869,-0.493475 -0.221178,-0.128283 -0.376215,-0.07741 -0.748457,-0.08885 -0.732306,-0.0225 -0.751062,-0.02191 -0.93564,0.02939 -0.180419,0.05012 -0.242043,0.142598 -0.436813,0.655594 -0.104923,0.276354 -0.359747,0.757965 -0.434379,0.820977 -0.02825,0.02385 -0.184432,0.09248 -0.347031,0.152472 -0.162591,0.05995 -0.409656,0.152421 -0.549022,0.2054 -0.139366,0.05298 -0.367423,0.103766 -0.506789,0.112859 -0.236669,0.01545 -0.296608,-0.0034 -0.908003,-0.278957 z M 25.100352,35.55834 c 0.04306,-0.02376 0.09799,-0.107075 0.122051,-0.185124 0.05967,-0.193612 0.168444,-1.437202 0.201657,-2.305743 0.02475,-0.647643 0.02035,-0.720747 -0.04762,-0.790837 -0.135051,-0.139281 -0.248522,-0.07682 -0.303512,0.16698 -0.05715,0.253366 -0.177097,1.692407 -0.21333,2.559026 -0.02499,0.597375 -0.02483,0.59892 0.06871,0.59892 0.05153,0 0.128962,-0.01948 0.172034,-0.04324 z m 2.637728,-2.233656 c 0.04078,-0.06415 0.125869,-0.35364 0.127684,-0.828492 0.0033,-0.897844 6.5e-5,-0.90671 0.01294,-1.233944 -0.01986,-0.156804 0.01294,-0.235835 -0.01905,-0.246809 -0.110467,-0.03795 -0.517225,-0.02788 -1.483222,0.168172 -1.041125,0.211294 -1.168231,0.372354 -1.14127,0.61489 0.01294,0.116184 0.02328,0.121775 0.20366,0.109836 0.104524,-0.0067 0.408598,-0.07926 0.675721,-0.160817 0.524145,-0.159986 1.137493,-0.290871 1.19407,-0.25481 0.01929,0.01226 0.02931,0.414099 0.02231,0.892923 -0.0127,0.869541 -0.01262,0.870682 0.08696,0.954307 0.132243,0.111054 0.243337,0.105764 0.320216,-0.01528 z"
     style="color:#000000;fill:#ffffff;fill-opacity:0.76079732;stroke:none;stroke-width:0.08578019000000001;stroke-linecap:butt;stroke-linejoin:miter;stroke-miterlimit:4;stroke-opacity:0.68770766000000005;stroke-dasharray:none;stroke-dashoffset:0;marker:none;visibility:visible;display:inline;overflow:visible;enable-background:accumulate" /></svg>